<svg width="400" height="300" viewBox="0 0 400 300" fill="none" xmlns="http://www.w3.org/2000/svg">
  <defs>
    <linearGradient id="bgGradient" x1="0%" y1="0%" x2="100%" y2="100%">
      <stop offset="0%" style="stop-color:#374151;stop-opacity:1" />
      <stop offset="100%" style="stop-color:#1e40af;stop-opacity:1" />
    </linearGradient>
    <linearGradient id="cardGradient" x1="0%" y1="0%" x2="100%" y2="100%">
      <stop offset="0%" style="stop-color:#ffffff;stop-opacity:0.15" />
      <stop offset="100%" style="stop-color:#ffffff;stop-opacity:0.05" />
    </linearGradient>
    <filter id="glow">
      <feGaussianBlur stdDeviation="2" result="coloredBlur"/>
      <feMerge> 
        <feMergeNode in="coloredBlur"/>
        <feMergeNode in="SourceGraphic"/>
      </feMerge>
    </filter>
  </defs>
  
  <!-- Background -->
  <rect width="400" height="300" fill="url(#bgGradient)"/>
  
  <!-- Main Calculator Container -->
  <rect x="50" y="40" width="300" height="220" rx="25" fill="url(#cardGradient)" stroke="rgba(255,255,255,0.2)" stroke-width="2"/>
  
  <!-- Header -->
  <rect x="70" y="60" width="260" height="40" rx="20" fill="rgba(255,255,255,0.2)"/>
  <text x="200" y="85" text-anchor="middle" fill="white" font-family="Arial" font-size="14" font-weight="bold">الآلة الحاسبة المتقدمة</text>
  
  <!-- Display Screen -->
  <rect x="80" y="110" width="240" height="40" rx="15" fill="#1f2937"/>
  <rect x="90" y="120" width="220" height="20" rx="10" fill="#111827"/>
  <text x="200" y="135" text-anchor="middle" fill="#10b981" font-family="Arial" font-size="16" font-weight="bold">123.45</text>
  
  <!-- Number Pad -->
  <rect x="80" y="170" width="50" height="40" rx="10" fill="rgba(16, 185, 129, 0.9)"/>
  <text x="105" y="195" text-anchor="middle" fill="white" font-family="Arial" font-size="14" font-weight="bold">7</text>
  
  <rect x="140" y="170" width="50" height="40" rx="10" fill="rgba(16, 185, 129, 0.9)"/>
  <text x="165" y="195" text-anchor="middle" fill="white" font-family="Arial" font-size="14" font-weight="bold">8</text>
  
  <rect x="200" y="170" width="50" height="40" rx="10" fill="rgba(16, 185, 129, 0.9)"/>
  <text x="225" y="195" text-anchor="middle" fill="white" font-family="Arial" font-size="14" font-weight="bold">9</text>
  
  <rect x="80" y="220" width="50" height="40" rx="10" fill="rgba(16, 185, 129, 0.9)"/>
  <text x="105" y="245" text-anchor="middle" fill="white" font-family="Arial" font-size="14" font-weight="bold">4</text>
  
  <rect x="140" y="220" width="50" height="40" rx="10" fill="rgba(16, 185, 129, 0.9)"/>
  <text x="165" y="245" text-anchor="middle" fill="white" font-family="Arial" font-size="14" font-weight="bold">5</text>
  
  <rect x="200" y="220" width="50" height="40" rx="10" fill="rgba(16, 185, 129, 0.9)"/>
  <text x="225" y="245" text-anchor="middle" fill="white" font-family="Arial" font-size="14" font-weight="bold">6</text>
  
  <!-- Operation Buttons -->
  <rect x="260" y="170" width="50" height="40" rx="10" fill="rgba(245, 158, 11, 0.9)"/>
  <text x="285" y="195" text-anchor="middle" fill="white" font-family="Arial" font-size="16" font-weight="bold">+</text>
  
  <rect x="260" y="220" width="50" height="40" rx="10" fill="rgba(245, 158, 11, 0.9)"/>
  <text x="285" y="245" text-anchor="middle" fill="white" font-family="Arial" font-size="16" font-weight="bold">-</text>
  
  <rect x="260" y="270" width="50" height="40" rx="10" fill="rgba(245, 158, 11, 0.9)"/>
  <text x="285" y="295" text-anchor="middle" fill="white" font-family="Arial" font-size="16" font-weight="bold">×</text>
  
  <!-- Equal Button -->
  <rect x="260" y="320" width="50" height="40" rx="10" fill="rgba(59, 130, 246, 0.9)"/>
  <text x="285" y="345" text-anchor="middle" fill="white" font-family="Arial" font-size="16" font-weight="bold">=</text>
  
  <!-- Decorative Elements -->
  <circle cx="320" cy="70" r="12" fill="rgba(255, 255, 255, 0.2)"/>
  <text x="320" y="75" text-anchor="middle" fill="white" font-family="Arial" font-size="12">🧮</text>
  
  <circle cx="340" cy="90" r="10" fill="rgba(255, 255, 255, 0.2)"/>
  <text x="340" y="95" text-anchor="middle" fill="white" font-family="Arial" font-size="10">⚡</text>
  
  <circle cx="320" cy="110" r="8" fill="rgba(255, 255, 255, 0.2)"/>
  <text x="320" y="115" text-anchor="middle" fill="white" font-family="Arial" font-size="8">💡</text>
  
  <!-- Title -->
  <text x="200" y="280" text-anchor="middle" fill="white" font-family="Arial" font-size="16" font-weight="bold">الآلة الحاسبة</text>
</svg>
