<svg width="400" height="300" viewBox="0 0 400 300" fill="none" xmlns="http://www.w3.org/2000/svg">
  <defs>
    <linearGradient id="bgGradient" x1="0%" y1="0%" x2="100%" y2="100%">
      <stop offset="0%" style="stop-color:#374151;stop-opacity:1" />
      <stop offset="100%" style="stop-color:#0ea5e9;stop-opacity:1" />
    </linearGradient>
    <linearGradient id="cardGradient" x1="0%" y1="0%" x2="100%" y2="100%">
      <stop offset="0%" style="stop-color:#ffffff;stop-opacity:0.15" />
      <stop offset="100%" style="stop-color:#ffffff;stop-opacity:0.05" />
    </linearGradient>
    <filter id="shadow">
      <feDropShadow dx="0" dy="4" stdDeviation="8" flood-color="#000000" flood-opacity="0.3"/>
    </filter>
  </defs>
  
  <!-- Background -->
  <rect width="400" height="300" fill="url(#bgGradient)"/>
  
  <!-- Main Calculator Container -->
  <rect x="80" y="60" width="240" height="180" rx="20" fill="url(#cardGradient)" stroke="rgba(255,255,255,0.2)" stroke-width="2" filter="url(#shadow)"/>
  
  <!-- Display -->
  <rect x="100" y="80" width="200" height="35" rx="17" fill="rgba(31, 41, 55, 0.9)"/>
  <text x="200" y="102" text-anchor="middle" fill="white" font-family="Arial" font-size="14" font-weight="bold">123.45</text>
  
  <!-- Number Buttons -->
  <rect x="100" y="130" width="35" height="30" rx="8" fill="rgba(16, 185, 129, 0.9)"/>
  <text x="117" y="150" text-anchor="middle" fill="white" font-family="Arial" font-size="12" font-weight="bold">7</text>
  
  <rect x="145" y="130" width="35" height="30" rx="8" fill="rgba(16, 185, 129, 0.9)"/>
  <text x="162" y="150" text-anchor="middle" fill="white" font-family="Arial" font-size="12" font-weight="bold">8</text>
  
  <rect x="190" y="130" width="35" height="30" rx="8" fill="rgba(16, 185, 129, 0.9)"/>
  <text x="207" y="150" text-anchor="middle" fill="white" font-family="Arial" font-size="12" font-weight="bold">9</text>
  
  <rect x="100" y="170" width="35" height="30" rx="8" fill="rgba(16, 185, 129, 0.9)"/>
  <text x="117" y="190" text-anchor="middle" fill="white" font-family="Arial" font-size="12" font-weight="bold">4</text>
  
  <rect x="145" y="170" width="35" height="30" rx="8" fill="rgba(16, 185, 129, 0.9)"/>
  <text x="162" y="190" text-anchor="middle" fill="white" font-family="Arial" font-size="12" font-weight="bold">5</text>
  
  <rect x="190" y="170" width="35" height="30" rx="8" fill="rgba(16, 185, 129, 0.9)"/>
  <text x="207" y="190" text-anchor="middle" fill="white" font-family="Arial" font-size="12" font-weight="bold">6</text>
  
  <!-- Operation Buttons -->
  <rect x="235" y="130" width="35" height="30" rx="8" fill="rgba(245, 158, 11, 0.9)"/>
  <text x="252" y="150" text-anchor="middle" fill="white" font-family="Arial" font-size="12" font-weight="bold">+</text>
  
  <rect x="235" y="170" width="35" height="30" rx="8" fill="rgba(245, 158, 11, 0.9)"/>
  <text x="252" y="190" text-anchor="middle" fill="white" font-family="Arial" font-size="12" font-weight="bold">-</text>
  
  <rect x="235" y="210" width="35" height="30" rx="8" fill="rgba(245, 158, 11, 0.9)"/>
  <text x="252" y="230" text-anchor="middle" fill="white" font-family="Arial" font-size="12" font-weight="bold">×</text>
  
  <!-- Equal Button -->
  <rect x="235" y="250" width="35" height="30" rx="8" fill="rgba(59, 130, 246, 0.9)"/>
  <text x="252" y="270" text-anchor="middle" fill="white" font-family="Arial" font-size="12" font-weight="bold">=</text>
  
  <!-- Zero Button -->
  <rect x="100" y="210" width="75" height="30" rx="8" fill="rgba(16, 185, 129, 0.9)"/>
  <text x="137" y="230" text-anchor="middle" fill="white" font-family="Arial" font-size="12" font-weight="bold">0</text>
  
  <!-- Decimal Button -->
  <rect x="185" y="210" width="35" height="30" rx="8" fill="rgba(16, 185, 129, 0.9)"/>
  <text x="202" y="230" text-anchor="middle" fill="white" font-family="Arial" font-size="12" font-weight="bold">.</text>
  
  <!-- Clear Button -->
  <rect x="100" y="250" width="75" height="30" rx="8" fill="rgba(239, 68, 68, 0.9)"/>
  <text x="137" y="270" text-anchor="middle" fill="white" font-family="Arial" font-size="12" font-weight="bold">C</text>
  
  <!-- Decorative Elements -->
  <circle cx="320" cy="70" r="10" fill="rgba(255, 255, 255, 0.2)"/>
  <text x="320" y="75" text-anchor="middle" fill="white" font-family="Arial" font-size="10">🧮</text>
  
  <circle cx="340" cy="90" r="8" fill="rgba(255, 255, 255, 0.2)"/>
  <text x="340" y="95" text-anchor="middle" fill="white" font-family="Arial" font-size="8">⚡</text>
  
  <!-- Title -->
  <text x="200" y="280" text-anchor="middle" fill="white" font-family="Arial" font-size="16" font-weight="bold">الآلة الحاسبة</text>
</svg>
