<svg width="400" height="300" viewBox="0 0 400 300" fill="none" xmlns="http://www.w3.org/2000/svg">
  <rect width="400" height="300" fill="#1f2937"/>
  <rect x="50" y="50" width="300" height="200" rx="8" fill="#374151"/>
  
  <!-- Coffee Cup -->
  <path d="M180 100 L220 100 L225 120 L225 160 L175 160 L175 120 Z" fill="#8b4513"/>
  <path d="M175 120 L225 120" stroke="#654321" stroke-width="2"/>
  <path d="M175 140 L225 140" stroke="#654321" stroke-width="2"/>
  <path d="M175 160 L225 160" stroke="#654321" stroke-width="2"/>
  
  <!-- Coffee Icon -->
  <circle cx="200" cy="140" r="15" fill="#654321"/>
  <text x="200" y="145" text-anchor="middle" fill="white" font-family="Arial" font-size="12" font-weight="bold">☕</text>
  
  <!-- UI Elements -->
  <rect x="120" y="180" width="60" height="30" rx="4" fill="#f59e0b"/>
  <text x="150" y="200" text-anchor="middle" fill="white" font-family="Arial" font-size="8" font-weight="bold">أمر</text>
  
  <rect x="190" y="180" width="60" height="30" rx="4" fill="#10b981"/>
  <text x="220" y="200" text-anchor="middle" fill="white" font-family="Arial" font-size="8" font-weight="bold">قائمة</text>
  
  <rect x="260" y="180" width="60" height="30" rx="4" fill="#3b82f6"/>
  <text x="290" y="200" text-anchor="middle" fill="white" font-family="Arial" font-size="8" font-weight="bold">إعدادات</text>
  
  <!-- Animation Indicator -->
  <circle cx="320" cy="70" r="15" fill="#ef4444"/>
  <text x="320" y="75" text-anchor="middle" fill="white" font-family="Arial" font-size="10" font-weight="bold">✨</text>
  
  <!-- Title -->
  <text x="200" y="220" text-anchor="middle" fill="white" font-family="Arial" font-size="14" font-weight="bold">تطبيق القهوة (UI/Animation)</text>
</svg>
