<svg width="400" height="300" viewBox="0 0 400 300" fill="none" xmlns="http://www.w3.org/2000/svg">
  <defs>
    <linearGradient id="bgGradient" x1="0%" y1="0%" x2="100%" y2="100%">
      <stop offset="0%" style="stop-color:#92400e;stop-opacity:1" />
      <stop offset="100%" style="stop-color:#ea580c;stop-opacity:1" />
    </linearGradient>
    <linearGradient id="cardGradient" x1="0%" y1="0%" x2="100%" y2="100%">
      <stop offset="0%" style="stop-color:#ffffff;stop-opacity:0.15" />
      <stop offset="100%" style="stop-color:#ffffff;stop-opacity:0.05" />
    </linearGradient>
    <filter id="glow">
      <feGaussianBlur stdDeviation="2" result="coloredBlur"/>
      <feMerge>
        <feMergeNode in="coloredBlur"/>
        <feMergeNode in="SourceGraphic"/>
      </feMerge>
    </filter>
  </defs>

  <!-- Background -->
  <rect width="400" height="300" fill="url(#bgGradient)"/>

  <!-- Main App Container -->
  <rect x="50" y="40" width="300" height="220" rx="25" fill="url(#cardGradient)" stroke="rgba(255,255,255,0.2)" stroke-width="2"/>

  <!-- Header -->
  <rect x="70" y="60" width="260" height="40" rx="20" fill="rgba(255,255,255,0.2)"/>
  <text x="200" y="85" text-anchor="middle" fill="white" font-family="Arial" font-size="14" font-weight="bold">تطبيق القهوة</text>

  <!-- Coffee Cup -->
  <g filter="url(#glow)">
    <path d="M160 120 L240 120 L245 140 L245 180 L155 180 L155 140 Z" fill="#8b4513" stroke="#654321" stroke-width="2"/>
    <path d="M155 140 L245 140" stroke="#654321" stroke-width="1"/>
    <path d="M155 160 L245 160" stroke="#654321" stroke-width="1"/>
    <path d="M155 180 L245 180" stroke="#654321" stroke-width="1"/>

    <!-- Coffee Icon -->
    <circle cx="200" cy="160" r="20" fill="#654321"/>
    <text x="200" y="165" text-anchor="middle" fill="white" font-family="Arial" font-size="16" font-weight="bold">☕</text>
  </g>

  <!-- Menu Items -->
  <rect x="80" y="200" width="70" height="35" rx="17" fill="rgba(245, 158, 11, 0.9)"/>
  <text x="115" y="220" text-anchor="middle" fill="white" font-family="Arial" font-size="9" font-weight="bold">أمر</text>

  <rect x="165" y="200" width="70" height="35" rx="17" fill="rgba(16, 185, 129, 0.9)"/>
  <text x="200" y="220" text-anchor="middle" fill="white" font-family="Arial" font-size="9" font-weight="bold">قائمة</text>

  <rect x="250" y="200" width="70" height="35" rx="17" fill="rgba(59, 130, 246, 0.9)"/>
  <text x="285" y="220" text-anchor="middle" fill="white" font-family="Arial" font-size="9" font-weight="bold">إعدادات</text>

  <!-- Animation Indicator -->
  <circle cx="320" cy="70" r="15" fill="rgba(239, 68, 68, 0.8)"/>
  <text x="320" y="75" text-anchor="middle" fill="white" font-family="Arial" font-size="12" font-weight="bold">✨</text>

  <!-- Decorative Elements -->
  <circle cx="320" cy="100" r="8" fill="rgba(255, 255, 255, 0.2)"/>
  <text x="320" y="105" text-anchor="middle" fill="white" font-family="Arial" font-size="8">🔥</text>

  <circle cx="340" cy="120" r="6" fill="rgba(255, 255, 255, 0.2)"/>
  <text x="340" y="125" text-anchor="middle" fill="white" font-family="Arial" font-size="6">💫</text>

  <!-- Title -->
  <text x="200" y="280" text-anchor="middle" fill="white" font-family="Arial" font-size="16" font-weight="bold">تطبيق القهوة (UI/Animation)</text>
</svg>
