<svg width="400" height="300" viewBox="0 0 400 300" fill="none" xmlns="http://www.w3.org/2000/svg">
  <defs>
    <linearGradient id="bgGradient" x1="0%" y1="0%" x2="100%" y2="100%">
      <stop offset="0%" style="stop-color:#7c3aed;stop-opacity:1" />
      <stop offset="100%" style="stop-color:#a855f7;stop-opacity:1" />
    </linearGradient>
    <linearGradient id="cardGradient" x1="0%" y1="0%" x2="100%" y2="100%">
      <stop offset="0%" style="stop-color:#ffffff;stop-opacity:0.15" />
      <stop offset="100%" style="stop-color:#ffffff;stop-opacity:0.05" />
    </linearGradient>
    <filter id="shadow">
      <feDropShadow dx="0" dy="4" stdDeviation="8" flood-color="#000000" flood-opacity="0.3"/>
    </filter>
  </defs>
  
  <!-- Background -->
  <rect width="400" height="300" fill="url(#bgGradient)"/>
  
  <!-- Main Platform Container -->
  <rect x="40" y="30" width="320" height="240" rx="25" fill="url(#cardGradient)" stroke="rgba(255,255,255,0.2)" stroke-width="2" filter="url(#shadow)"/>
  
  <!-- Header -->
  <rect x="60" y="50" width="280" height="50" rx="25" fill="rgba(255,255,255,0.2)"/>
  <text x="200" y="80" text-anchor="middle" fill="white" font-family="Arial" font-size="16" font-weight="bold">ููุดุงุฑ - Kenshar</text>
  
  <!-- Company Building -->
  <rect x="80" y="120" width="120" height="80" rx="15" fill="rgba(139, 92, 246, 0.8)"/>
  <rect x="90" y="130" width="100" height="20" rx="10" fill="rgba(109, 40, 217, 0.9)"/>
  <text x="140" y="145" text-anchor="middle" fill="white" font-family="Arial" font-size="10" font-weight="bold">ุดุฑูุฉ ุงุณุชุดุงุฑูุฉ</text>
  
  <!-- Windows -->
  <rect x="95" y="155" width="25" height="25" rx="5" fill="rgba(196, 181, 253, 0.8)"/>
  <rect x="125" y="155" width="25" height="25" rx="5" fill="rgba(196, 181, 253, 0.8)"/>
  <rect x="155" y="155" width="25" height="25" rx="5" fill="rgba(196, 181, 253, 0.8)"/>
  
  <!-- Consultation Services -->
  <rect x="220" y="120" width="80" height="35" rx="17" fill="rgba(16, 185, 129, 0.8)"/>
  <text x="260" y="140" text-anchor="middle" fill="white" font-family="Arial" font-size="9" font-weight="bold">ุงุณุชุดุงุฑุงุช ูุงููุฉ</text>
  
  <rect x="220" y="165" width="80" height="35" rx="17" fill="rgba(59, 130, 246, 0.8)"/>
  <text x="260" y="185" text-anchor="middle" fill="white" font-family="Arial" font-size="9" font-weight="bold">ุงุณุชุดุงุฑุงุช ุชูููุฉ</text>
  
  <rect x="220" y="210" width="80" height="35" rx="17" fill="rgba(245, 158, 11, 0.8)"/>
  <text x="260" y="230" text-anchor="middle" fill="white" font-family="Arial" font-size="9" font-weight="bold">ุงุณุชุดุงุฑุงุช ุฅุฏุงุฑูุฉ</text>
  
  <!-- Service Icons -->
  <circle cx="140" cy="200" r="15" fill="rgba(16, 185, 129, 0.9)"/>
  <text x="140" y="205" text-anchor="middle" fill="white" font-family="Arial" font-size="12" font-weight="bold">๐ผ</text>
  
  <circle cx="180" cy="200" r="15" fill="rgba(59, 130, 246, 0.9)"/>
  <text x="180" y="205" text-anchor="middle" fill="white" font-family="Arial" font-size="12" font-weight="bold">๐</text>
  
  <circle cx="220" cy="200" r="15" fill="rgba(245, 158, 11, 0.9)"/>
  <text x="220" y="205" text-anchor="middle" fill="white" font-family="Arial" font-size="12" font-weight="bold">๐ฏ</text>
  
  <!-- Decorative Elements -->
  <circle cx="320" cy="70" r="12" fill="rgba(255, 255, 255, 0.2)"/>
  <text x="320" y="75" text-anchor="middle" fill="white" font-family="Arial" font-size="12">๐ข</text>
  
  <circle cx="340" cy="90" r="10" fill="rgba(255, 255, 255, 0.2)"/>
  <text x="340" y="95" text-anchor="middle" fill="white" font-family="Arial" font-size="10">๐ก</text>
  
  <circle cx="320" cy="110" r="8" fill="rgba(255, 255, 255, 0.2)"/>
  <text x="320" y="115" text-anchor="middle" fill="white" font-family="Arial" font-size="8">๐</text>
  
  <!-- Title -->
  <text x="200" y="280" text-anchor="middle" fill="white" font-family="Arial" font-size="16" font-weight="bold">ููุดุงุฑ - Kenshar</text>
</svg>
