<svg width="400" height="300" viewBox="0 0 400 300" fill="none" xmlns="http://www.w3.org/2000/svg">
  <rect width="400" height="300" fill="#1f2937"/>
  <rect x="50" y="50" width="300" height="200" rx="8" fill="#374151"/>
  
  <!-- Auction Platform -->
  <rect x="80" y="80" width="240" height="120" rx="8" fill="#1e40af"/>
  
  <!-- Product Cards -->
  <rect x="100" y="100" width="60" height="40" rx="4" fill="#10b981"/>
  <text x="130" y="115" text-anchor="middle" fill="white" font-family="Arial" font-size="8" font-weight="bold">منتج 1</text>
  <text x="130" y="125" text-anchor="middle" fill="white" font-family="Arial" font-size="8" font-weight="bold">$150</text>
  
  <rect x="170" y="100" width="60" height="40" rx="4" fill="#f59e0b"/>
  <text x="200" y="115" text-anchor="middle" fill="white" font-family="Arial" font-size="8" font-weight="bold">منتج 2</text>
  <text x="200" y="125" text-anchor="middle" fill="white" font-family="Arial" font-size="8" font-weight="bold">$200</text>
  
  <rect x="240" y="100" width="60" height="40" rx="4" fill="#ef4444"/>
  <text x="270" y="115" text-anchor="middle" fill="white" font-family="Arial" font-size="8" font-weight="bold">منتج 3</text>
  <text x="270" y="125" text-anchor="middle" fill="white" font-family="Arial" font-size="8" font-weight="bold">$300</text>
  
  <!-- Timer -->
  <circle cx="200" cy="170" r="25" fill="#ef4444"/>
  <text x="200" y="175" text-anchor="middle" fill="white" font-family="Arial" font-size="12" font-weight="bold">5:30</text>
  
  <!-- Bidding Buttons -->
  <rect x="120" y="190" width="40" height="25" rx="4" fill="#10b981"/>
  <text x="140" y="205" text-anchor="middle" fill="white" font-family="Arial" font-size="8" font-weight="bold">مزايدة</text>
  
  <rect x="240" y="190" width="40" height="25" rx="4" fill="#3b82f6"/>
  <text x="260" y="205" text-anchor="middle" fill="white" font-family="Arial" font-size="8" font-weight="bold">متابعة</text>
  
  <!-- Title -->
  <text x="200" y="220" text-anchor="middle" fill="white" font-family="Arial" font-size="14" font-weight="bold">مزادلي - Mzadly.com</text>
</svg>
