<svg width="400" height="300" viewBox="0 0 400 300" fill="none" xmlns="http://www.w3.org/2000/svg">
  <rect width="400" height="300" fill="#1f2937"/>
  <rect x="50" y="50" width="300" height="200" rx="8" fill="#374151"/>
  
  <!-- Notes App -->
  <rect x="100" y="80" width="200" height="120" rx="4" fill="#8b5cf6"/>
  
  <!-- Note 1 -->
  <rect x="110" y="90" width="80" height="40" rx="2" fill="#fef3c7"/>
  <text x="150" y="105" text-anchor="middle" fill="#92400e" font-family="Arial" font-size="8" font-weight="bold">ููุงุญุธุฉ ูููุฉ</text>
  <text x="150" y="115" text-anchor="middle" fill="#92400e" font-family="Arial" font-size="6">ุงุฌุชูุงุน ุบุฏุงู...</text>
  <text x="150" y="125" text-anchor="middle" fill="#92400e" font-family="Arial" font-size="6">9:00 ุตุจุงุญุงู</text>
  
  <!-- Note 2 -->
  <rect x="200" y="90" width="80" height="40" rx="2" fill="#dbeafe"/>
  <text x="240" y="105" text-anchor="middle" fill="#1e40af" font-family="Arial" font-size="8" font-weight="bold">ูุงุฆูุฉ ุงูููุงู</text>
  <text x="240" y="115" text-anchor="middle" fill="#1e40af" font-family="Arial" font-size="6">- ุดุฑุงุก ุงูุฎุถุงุฑ</text>
  <text x="240" y="125" text-anchor="middle" fill="#1e40af" font-family="Arial" font-size="6">- ุฏูุน ุงูููุงุชูุฑ</text>
  
  <!-- Note 3 -->
  <rect x="110" y="140" width="80" height="40" rx="2" fill="#fce7f3"/>
  <text x="150" y="155" text-anchor="middle" fill="#be185d" font-family="Arial" font-size="8" font-weight="bold">ุฃููุงุฑ ูุดุฑูุน</text>
  <text x="150" y="165" text-anchor="middle" fill="#be185d" font-family="Arial" font-size="6">ุชุทุจูู ุฌุฏูุฏ</text>
  <text x="150" y="175" text-anchor="middle" fill="#be185d" font-family="Arial" font-size="6">ููููุงุญุธุงุช</text>
  
  <!-- Note 4 -->
  <rect x="200" y="140" width="80" height="40" rx="2" fill="#dcfce7"/>
  <text x="240" y="155" text-anchor="middle" fill="#166534" font-family="Arial" font-size="8" font-weight="bold">ูููุงุช ูุฑูุฑ</text>
  <text x="240" y="165" text-anchor="middle" fill="#166534" font-family="Arial" font-size="6">GitHub: ***</text>
  <text x="240" y="175" text-anchor="middle" fill="#166534" font-family="Arial" font-size="6">Email: ***</text>
  
  <!-- Sync Icon -->
  <circle cx="320" cy="70" r="15" fill="#06b6d4"/>
  <text x="320" y="75" text-anchor="middle" fill="white" font-family="Arial" font-size="10" font-weight="bold">๐</text>
  
  <!-- Title -->
  <text x="200" y="220" text-anchor="middle" fill="white" font-family="Arial" font-size="14" font-weight="bold">ุชุทุจูู ุงูููุงุญุธุงุช</text>
</svg>
