<svg width="400" height="300" viewBox="0 0 400 300" fill="none" xmlns="http://www.w3.org/2000/svg">
  <rect width="400" height="300" fill="#1f2937"/>
  <rect x="50" y="50" width="300" height="200" rx="8" fill="#374151"/>
  
  <!-- House -->
  <path d="M200 80 L160 120 L240 120 Z" fill="#f97316"/>
  <rect x="160" y="120" width="80" height="60" fill="#ea580c"/>
  <rect x="175" y="130" width="15" height="20" fill="#1f2937"/>
  <rect x="210" y="130" width="15" height="20" fill="#1f2937"/>
  
  <!-- Consultation Office -->
  <rect x="100" y="160" width="60" height="40" rx="4" fill="#3b82f6"/>
  <rect x="110" y="170" width="40" height="20" fill="#1e40af"/>
  <text x="130" y="183" text-anchor="middle" fill="white" font-family="Arial" font-size="8" font-weight="bold">مكتب</text>
  
  <!-- Charts -->
  <rect x="240" y="160" width="60" height="40" rx="4" fill="#10b981"/>
  <rect x="250" y="170" width="8" height="20" fill="#047857"/>
  <rect x="260" y="175" width="8" height="15" fill="#047857"/>
  <rect x="270" y="180" width="8" height="10" fill="#047857"/>
  <rect x="280" y="185" width="8" height="5" fill="#047857"/>
  
  <!-- Consultation Icons -->
  <circle cx="140" cy="220" r="12" fill="#f59e0b"/>
  <text x="140" y="225" text-anchor="middle" fill="white" font-family="Arial" font-size="10" font-weight="bold">🏠</text>
  
  <circle cx="180" cy="220" r="12" fill="#8b5cf6"/>
  <text x="180" y="225" text-anchor="middle" fill="white" font-family="Arial" font-size="10" font-weight="bold">📋</text>
  
  <circle cx="220" cy="220" r="12" fill="#ef4444"/>
  <text x="220" y="225" text-anchor="middle" fill="white" font-family="Arial" font-size="10" font-weight="bold">💡</text>
  
  <circle cx="260" cy="220" r="12" fill="#06b6d4"/>
  <text x="260" y="225" text-anchor="middle" fill="white" font-family="Arial" font-size="10" font-weight="bold">📞</text>
  
  <!-- Title -->
  <text x="200" y="220" text-anchor="middle" fill="white" font-family="Arial" font-size="14" font-weight="bold">الرؤية العقارية</text>
</svg>
