<svg width="400" height="300" viewBox="0 0 400 300" fill="none" xmlns="http://www.w3.org/2000/svg">
  <rect width="400" height="300" fill="#1f2937"/>
  <rect x="50" y="50" width="300" height="200" rx="8" fill="#374151"/>
  
  <!-- Phone 1 -->
  <rect x="80" y="80" width="80" height="120" rx="8" fill="#3b82f6"/>
  <rect x="90" y="90" width="60" height="40" rx="4" fill="#1e40af"/>
  <rect x="90" y="140" width="60" height="20" rx="4" fill="#1e40af"/>
  <rect x="90" y="170" width="60" height="20" rx="4" fill="#1e40af"/>
  
  <!-- Phone 2 -->
  <rect x="240" y="80" width="80" height="120" rx="8" fill="#10b981"/>
  <rect x="250" y="90" width="60" height="40" rx="4" fill="#047857"/>
  <rect x="250" y="140" width="60" height="20" rx="4" fill="#047857"/>
  <rect x="250" y="170" width="60" height="20" rx="4" fill="#047857"/>
  
  <!-- Swap Arrows -->
  <path d="M190 130 L210 130 L210 120 M190 130 L210 130 L210 140" stroke="#f59e0b" stroke-width="3" stroke-linecap="round" stroke-linejoin="round"/>
  <path d="M190 170 L210 170 L210 160 M190 170 L210 170 L210 180" stroke="#f59e0b" stroke-width="3" stroke-linecap="round" stroke-linejoin="round"/>
  
  <!-- Title -->
  <text x="200" y="220" text-anchor="middle" fill="white" font-family="Arial" font-size="14" font-weight="bold">تطبيق المقايضة</text>
</svg>
